<svg id="Layer_2" data-name="Layer 2" xmlns="http://www.w3.org/2000/svg" viewBox="0 0 1600 1600"><defs><style>.cls-1{fill:#3a98fc;}</style></defs><title>Udesh</title><path class="cls-1" d="M1214.58881,1465.37982c-.085-1.75067-.1311-3.49512-.1308-5.2478l.18683-1320.64886c-.562-56.57178-9.92816-67.99854-9.92816-67.99854-9.74078-21.16748-63.69-21.35474-63.69-21.35474H967.00311c-26.31238,1.07715-38.46838,4.80859-41.9707,6.10669-.87335.32373-1.76929.5791-2.66718.82642-33.85077,9.32959-27.669,82.42017-27.669,82.42017l-.24982,1194.375c-4.99524,39.21307-11.73889,46.45624-11.73889,46.45624-12.98779,24.9765-76.92755,21.72949-76.92755,21.72949l-181.8288-.24976c-55.94727,1.4986-70.43365-13.737-70.43365-13.737-17.48346-8.24225-18.73236-65.43842-18.73236-65.43842L534.53546,132.4895c.24969-86.918-71.68256-82.35962-71.68256-82.35962-79.17535-4.18384-77.56348,75.36646-77.56348,75.36646l.01154,1346.35681a128.02873,128.02873,0,0,0,3.62164,30.846c6.1192,28.598,23.10327,35.65381,23.10327,35.65381,13.4248,9.99066,50.70221,11.5517,50.70221,11.5517l671.55493.12488c19.68463,0,31.892-3.93536,37.1214-6.10211,2.3523-.97467,4.74048-1.82459,7.13525-2.68951C1215.5755,1527.86249,1215.12292,1476.39179,1214.58881,1465.37982ZM980.49042,391.99536V184.81543c0-11.2395,14.61121-10.86475,14.61121-10.86475h86.91815c46.45624,3.37183,43.459,42.70972,43.459,42.70972s.74933,95.53516,0,142.366-44.20837,43.12134-44.20837,43.12134l-90.66455-.03687C979.74109,402.86011,980.49042,391.99536,980.49042,391.99536Zm122.60327,675.58234h-101.623s-9.92816.562-10.86475-10.86475V999.29828c0-.46832-.37469-9.55353,7.3056-9.55353h33.24994s8.24225-.281,8.42956,7.49292v39.43164s-.37469,8.61688,11.05206,8.52319h28.66052s13.39362,1.68591,13.67462-7.68024,0-68.74774,0-68.74774,2.43518-11.98871-13.019-10.11548h-78.76959s-9.93408,1.21759-10.58667-10.11548,0-99.18781,0-99.18781-.18439-10.27161,10.86768-10.27161h104.52655s9.86566-.12488,10.11548,10.61505,0,47.45526,0,47.45526-.65564,11.77014-11.33307,10.73987c0,0-11.70776.46832-11.52045-12.457V871.54358s1.96692-11.33307-13.67462-10.67743-51.88861,0-51.88861,0-10.3028-.562-12.36334,3.27814c0,0-1.124.281-.93665,5.61975v58.72589s-.18732,5.05774,4.02747,7.02466c0,0,2.34155,1.68591,10.49011.93658h76.89636s9.77545,1.21765,10.41382,9.83453,0,109.39691,0,109.39691S1117.9859,1067.765,1103.09369,1067.5777Zm-84.51416-527.472v55.19812s-3.24695,11.98871,12.48822,10.73981l73.181.09119s11.11456,1.00153,10.45892,10.74237c0,0,.18738,10.20917-8.52319,11.52039h-49.64075s-13.76825-1.87323-11.98871,11.33307v60.97388s-.562,8.4295,3.09082,10.11542c0,0,1.405,2.06061,11.80139,2.06061h42.24146s14.1051-.93665,13.04694,10.67743c0,0,.53406,10.39642-9.20679,11.14575s-99.84345,0-99.84345,0-8.8042.37463-10.11548-11.98871V517.97046s-.93665-11.614,9.83447-10.86475h99.93713s9.87677,1.021,9.87677,9.87671c0,0,.988,10.2605-9.78308,11.66553h-74.46112s-6.1817-.281-10.02185,2.43506C1020.95227,531.083,1018.17365,532.73779,1018.57953,540.10571Zm102.7157,859.62787h-33.46844s-6.74365.49957-7.3681-9.61591v-84.23322s1.4986-13.05017-10.3028-12.3009h-35.40411s-10.73981-.87414-9.80322,9.55353V1388.744s.437,10.68548-9.49109,10.99359H984.23688s-8.24225.93262-8.24225-9.05792V1181.00214s.99908-10.11548,11.05212-9.55353c0,0,10.73987-1.1864,12.176,9.55353v80.61157s-1.68591,10.55249,12.36334,9.55353H1066.347s13.67462,1.56091,13.36237-8.99158v-78.30121s.0625-12.62842,11.739-12.46472c0,0,11.36426-.52307,11.30176,10.09186v79.23785s.125,5.74469,3.05969,8.42957c0,0,2.31036,2.93481,9.054,3.37183,0,0,15.98486.62445,14.54877,14.9859v101.84161S1129.66242,1399.17157,1121.29523,1399.73358Z"/><path class="cls-1" d="M1038.56073,380.38135c12.36334,1.49854,40.46185,0,40.46185,0s24.72675,4.12109,23.60278-23.22827c-1.124-27.34912.03723-140.11792.03723-140.11792s2.58527-23.60278-23.64-20.231l-34.46753-.32959s-15.36054-1.91846-15.36054,11.56885V368.01782S1026.19733,378.88257,1038.56073,380.38135Z"/></svg>